{"title":"Olympus Has Fallen 2013 CAM XviD-SSDD","uid":8347901,"size":913501467,"categoryP":"video","categoryS":"movies","magnet":"?xt=urn:btih:fa03713349516539bdb345680ff733967b0179fc&amp;dn=Olympus+Has+Fallen+2013+CAM+XviD-SSDD&amp;tr=udp%3A%2F%2Ftracker.openbittorrent.com%3A80&amp;tr=udp%3A%2F%2Fopen.demonii.com%3A1337&amp;tr=udp%3A%2F%2Ftracker.coppersurfer.tk%3A6969&amp;tr=udp%3A%2F%2Fexodus.desync.com%3A6969","seeders":1,"leechers":1,"uploader":"Gh0stNet","files":3,"time":1365256432,"description":"Source - Olympus has Fallen 2013 HP cam (Thumbs Up + Respect)\n\nNOTES - Enjoy, did a fair bit of work to this.  Naffed up the calculation on size so its oversized from the 700mb i wanted but never the less its good to go.\n\nSAMPLE INCLUDED.\n\nGeneral\nComplete name                            : Olympus Has Fallen 2013 CAM XviD-SSDD.avi\nFormat                                   : AVI\nFormat/Info                              : Audio Video Interleave\nFile size                                : 867 MiB\nDuration                                 : 1h 50mn\nOverall bit rate                         : 1 100 Kbps\n\nVideo\nID                                       : 0\nFormat                                   : MPEG-4 Visual\nFormat profile                           : Advanced Simple@L5\nFormat settings, BVOP                    : 2\nFormat settings, QPel                    : No\nFormat settings, GMC                     : No warppoints\nFormat settings, Matrix                  : Default (H.263)\nMuxing mode                              : Packed bitstream\nCodec ID                                 : XVID\nCodec ID/Hint                            : XviD\nDuration                                 : 1h 50mn\nBit rate                                 : 960 Kbps\nWidth                                    : 720 pixels\nHeight                                   : 304 pixels\nDisplay aspect ratio                     : 2.35:1\nFrame rate                               : 29.970 fps\nColor space                              : YUV\nChroma subsampling                       : 4:2:0\nBit depth                                : 8 bits\nScan type                                : Progressive\nCompression mode                         : Lossy\nBits/(Pixel*Frame)                       : 0.146\nStream size                              : 757 MiB (87%)\n\nAudio\nID                                       : 1\nFormat                                   : MPEG Audio\nFormat version                           : Version 1\nFormat profile                           : Layer 3\nMode                                     : Joint stereo\nMode extension                           : MS Stereo\nCodec ID                                 : 55\nCodec ID/Hint                            : MP3\nDuration                                 : 1h 50mn\nBit rate mode                            : Constant\nBit rate                                 : 128 Kbps\nChannel(s)                               : 2 channels\nSampling rate                            : 48.0 KHz\nCompression mode                         : Lossy\nStream size                              : 101 MiB (12%)\n\nScreens:\n &lt;a href=&quot;\nhttp://imgbox.com/acgGIxyV&quot; rel=&quot;nofollow&quot; target=&quot;_NEW&quot;&gt;\nhttp://imgbox.com/acgGIxyV&lt;/a&gt; &lt;a href=&quot;\nhttp://imgbox.com/abwauDP8&quot; rel=&quot;nofollow&quot; target=&quot;_NEW&quot;&gt;\nhttp://imgbox.com/abwauDP8&lt;/a&gt; &lt;a href=&quot;\nhttp://imgbox.com/adwZ4Dd2&quot; rel=&quot;nofollow&quot; target=&quot;_NEW&quot;&gt;\nhttp://imgbox.com/adwZ4Dd2&lt;/a&gt; &lt;a href=&quot;\nhttp://imgbox.com/adowefR8&quot; rel=&quot;nofollow&quot; target=&quot;_NEW&quot;&gt;\nhttp://imgbox.com/adowefR8&lt;/a&gt;","torrent":{"xt":"urn:btih:fa03713349516539bdb345680ff733967b0179fc","amp;dn":"Olympus+Has+Fallen+2013+CAM+XviD-SSDD","amp;tr":["udp%3A%2F%2Ftracker.openbittorrent.com%3A80","udp%3A%2F%2Fopen.demonii.com%3A1337","udp%3A%2F%2Ftracker.coppersurfer.tk%3A6969","udp%3A%2F%2Fexodus.desync.com%3A6969"],"infoHash":"fa03713349516539bdb345680ff733967b0179fc","infoHashBuffer":{"type":"Buffer","data":[250,3,113,51,73,81,101,57,189,179,69,104,15,247,51,150,123,1,121,252]},"announce":[],"urlList":[]}}